<svg width="24" height="24" fill="none" xmlns="http://www.w3.org/2000/svg">
  <g clip-path="url(#chrome-logo_svg__a)">
    <path d="M11.987 17.986a5.967 5.967 0 1 0 0-11.934 5.967 5.967 0 0 0 0 11.934Z" fill="#fff"></path>
    <path
      d="m6.82 15.004-5.167-8.95a11.93 11.93 0 0 0 10.335 17.9l5.167-8.95v-.002a5.963 5.963 0 0 1-8.151 2.187 5.962 5.962 0 0 1-2.185-2.185Z"
      fill="url(#chrome-logo_svg__b)"></path>
    <path
      d="m17.154 15.004-5.166 8.949a11.925 11.925 0 0 0 9.467-4.669 11.931 11.931 0 0 0 .865-13.231H11.985a5.963 5.963 0 0 1 5.969 5.967 5.961 5.961 0 0 1-.8 2.984Z"
      fill="url(#chrome-logo_svg__c)"></path>
    <path d="M11.987 16.744a4.724 4.724 0 1 0 0-9.448 4.724 4.724 0 0 0 0 9.448Z" fill="#1A73E8"></path>
    <path
      d="M11.987 6.053h10.334A11.928 11.928 0 0 0 8.898.493a11.93 11.93 0 0 0-7.245 5.561l5.166 8.95h.002a5.965 5.965 0 0 1 5.166-8.95Z"
      fill="url(#chrome-logo_svg__d)"></path>
  </g>
  <defs>
    <linearGradient id="chrome-logo_svg__b" x1="13.279" y1="23.208" x2="2.945" y2="5.309"
      gradientUnits="userSpaceOnUse">
      <stop stop-color="#1E8E3E"></stop>
      <stop offset="1" stop-color="#34A853"></stop>
    </linearGradient>
    <linearGradient id="chrome-logo_svg__c" x1="10.246" y1="23.984" x2="20.58" y2="6.085"
      gradientUnits="userSpaceOnUse">
      <stop stop-color="#FCC934"></stop>
      <stop offset="1" stop-color="#FBBC04"></stop>
    </linearGradient>
    <linearGradient id="chrome-logo_svg__d" x1="1.653" y1="7.545" x2="22.321" y2="7.545" gradientUnits="userSpaceOnUse">
      <stop stop-color="#D93025"></stop>
      <stop offset="1" stop-color="#EA4335"></stop>
    </linearGradient>
    <clipPath id="chrome-logo_svg__a">
      <path fill="#fff" d="M0 0h24v24H0z"></path>
    </clipPath>
  </defs>
</svg>